<svg xmlns="http://www.w3.org/2000/svg" height="1024" preserveAspectRatio="none" style="display: block;" version="1.1" viewBox="0 0 2048 2048" width="1024">
<path d="M 0 0 L 2048 0 L 2048 2048 L 0 2048 L 0 0 z" fill="rgb(254,254,254)" transform="translate(0,0)"></path>
<path d="M 1019.61 160.378 C 1023.28 160.893 1023.02 160.835 1026.12 162.901 C 1029.51 167.751 1028.18 219.054 1028.18 228.325 C 1028.07 267.846 1028.22 307.367 1028.61 346.886 C 1039.95 348.214 1050.08 349.135 1061.25 351.602 C 1061.84 333.608 1060.35 297.782 1063.47 279.684 C 1063.68 278.414 1065.39 278.326 1066.95 277.875 C 1071.03 278.789 1069.4 277.835 1072.23 280.448 C 1074.16 288.495 1073.31 342.439 1073.29 354.331 C 1097.01 375.194 1092.29 394.004 1091.04 422.597 C 1100.99 429.015 1119.27 438.092 1130.15 443.88 C 1165.16 462.433 1200.6 480.168 1236.44 497.07 C 1252 504.537 1264.65 511.451 1274.35 526.195 C 1277.14 530.425 1282.45 535.964 1279.78 540.746 C 1272.86 542.407 1225.37 534.712 1213.85 533.543 C 1212.89 553.318 1212.96 574.285 1212.45 594.262 C 1211.65 633.559 1210.53 672.849 1209.1 712.128 C 1228.32 715.436 1250.97 722.184 1270.13 726.821 C 1279.85 729.173 1300.61 734.095 1308.9 737.909 C 1304.9 760.194 1294.45 797.005 1293.18 817.724 C 1279.29 834.348 1259.09 849.152 1245.97 867.348 L 1251.36 1133.81 C 1274.47 1136.38 1297.53 1139.44 1320.51 1142.99 C 1356.7 1148.56 1410.49 1156.44 1440.69 1177.77 C 1448.92 1183.58 1453.67 1189.99 1459.52 1197.98 C 1476.86 1202.8 1495.95 1206.84 1513.77 1211.61 C 1551.02 1221.59 1587.76 1233.35 1623.88 1246.84 C 1632.53 1250.14 1651.53 1256.29 1658.6 1260.82 C 1694.24 1283.64 1650.76 1293.87 1635.28 1298.6 L 1577.8 1315.99 C 1566.31 1319.37 1553.55 1321.92 1542.77 1327.05 C 1538.48 1329.1 1533.95 1332.08 1531.67 1336.39 C 1529.64 1340.22 1530.33 1343.83 1532.43 1347.45 C 1538.4 1357.73 1549.79 1366.32 1558.03 1374.86 C 1578.19 1395.73 1643.81 1460.92 1649.8 1486.32 C 1651.07 1491.69 1650.43 1495.37 1647.6 1500.02 C 1635.38 1508.89 1595.92 1487.13 1580.71 1483 C 1566.57 1478.98 1548.61 1469.02 1534.42 1466.38 C 1447.78 1450.25 1351.17 1440.67 1263.39 1441.42 C 1266.03 1531.08 1268.15 1620.76 1269.75 1710.45 C 1270.84 1749.64 1271.5 1788.85 1271.73 1828.07 C 1271.89 1840.42 1275.33 1880.39 1269.73 1888.29 C 1266.72 1889.52 1268.21 1889.48 1265.11 1888.42 C 1262.71 1885.69 1261.79 1882.57 1261.77 1878.97 C 1261.68 1861.11 1261.19 1843.16 1260.8 1825.34 L 1258.2 1702.86 L 1250.13 1342.9 C 1231.75 1340.72 1200.68 1340.53 1181.75 1339.96 C 1136.29 1338.65 1090.82 1337.7 1045.34 1337.12 C 963.736 1336.07 882.123 1338.03 800.664 1342.97 C 798.996 1362.3 799.156 1390.04 799.047 1409.67 C 798.851 1435.12 798.501 1460.56 797.998 1486 L 792.014 1774.7 C 791.545 1802.46 790.891 1830.21 790.054 1857.97 C 789.842 1866.3 792.326 1886.58 785.539 1890.68 C 781.699 1890.7 783.416 1891.2 780.192 1889.15 C 777.354 1882.4 780.724 1798.54 780.904 1784.01 C 782.312 1670.19 786.824 1556.52 787.289 1442.67 C 755.174 1443.3 722.974 1445.38 690.917 1447.4 C 637.26 1450.78 581.998 1454.52 529.622 1467.07 C 514.716 1470.65 499.784 1474.93 485.475 1480.44 C 467.125 1487.49 448.897 1496.65 429.48 1500.21 C 422.864 1501.43 412.267 1502.72 406.705 1498.03 C 404.466 1496.14 403.217 1494.01 402.866 1491.1 C 399.6 1464.03 497.615 1379.94 518.204 1355.41 C 522.656 1350.11 526.886 1344.34 526.259 1337.12 C 519.153 1322.35 476.572 1313.39 460.851 1309.1 C 443.907 1304.5 427.036 1299.63 410.243 1294.5 C 403.193 1292.38 394.856 1290.58 388.444 1286.97 C 385.421 1285.27 382.507 1282.09 381.907 1278.56 C 381.462 1275.95 381.99 1273.53 383.501 1271.35 C 399.198 1248.73 556.346 1206.18 588.827 1201.55 C 613.184 1145.53 744.802 1138.51 799.967 1134.5 C 802.532 1047.51 806.509 953.927 806.658 867.246 C 801.505 860.674 796.057 854.337 790.331 848.256 C 784.713 842.389 763.219 821.856 762.103 817.852 C 758.327 804.306 746.394 744.77 749.289 734.178 C 756.811 728.856 824.427 715.831 838.872 712.889 L 837.584 604.325 C 837.302 580.949 837.608 555.855 836.48 532.682 C 816.694 534.91 794.454 538.364 774.915 541.579 C 780.732 519.804 792.2 509.476 811.953 499.985 C 861.28 476.285 909.227 450.822 957.3 424.746 C 956.389 399.113 952.154 375.699 972.481 356.094 C 972.663 336.165 971.213 301.474 973.822 281.112 C 974.098 278.958 976.736 278.128 978.553 277.398 C 980.017 277.649 980.714 277.431 981.731 278.663 C 988.027 286.289 985.059 337.757 985.009 350.477 C 995.088 349.044 1004.75 348.4 1014.88 347.643 C 1015.66 309.316 1016.02 270.982 1015.95 232.647 C 1015.93 211.259 1015.57 189.011 1016.31 167.623 C 1016.42 164.352 1017.62 162.816 1019.61 160.378 z" fill="rgb(0,0,0)" transform="translate(0,0)"></path>
<path d="M 982.414 1134.55 C 1103.54 1129.42 1239.16 1139.9 1359.17 1160.33 C 1392.26 1165.96 1431.42 1174.72 1450.82 1204.15 L 1451 1372.39 C 1390.57 1337.17 1298.51 1333.97 1229.67 1330.88 C 1175.79 1328.64 1121.89 1327.13 1067.98 1326.34 C 999.89 1325.22 931.784 1326.12 863.749 1329.01 C 798.931 1331.77 740.176 1334.84 676.883 1349.96 C 650.5 1356.27 624.961 1358.42 600.993 1372.44 L 601.097 1199.67 C 627.282 1157.12 756.419 1148.82 804.379 1144.7 C 863.588 1139.25 922.969 1135.87 982.414 1134.55 z" fill="rgb(254,254,254)" transform="translate(0,0)"></path>
<path d="M 879.718 1169.42 C 887.646 1168.35 903.398 1168.25 910.674 1170.56 C 949.675 1182.99 947.95 1220.83 914.207 1238.33 C 932.126 1248.93 944.777 1278.61 958.86 1297.16 C 952.293 1297.61 945.361 1297.81 938.755 1298.1 C 934.967 1291.13 931.008 1284.26 926.883 1277.49 C 919.316 1264.53 913.703 1252.2 900.83 1244.15 C 894.825 1243.73 888.003 1243.93 881.904 1243.96 C 883.133 1261.74 884.077 1281.72 886.086 1299.28 C 880.604 1300.15 875.44 1300.39 869.92 1300.73 C 868.355 1288.37 867.484 1271.64 866.48 1259.02 C 864.141 1229.82 861.963 1200.6 859.945 1171.38 L 879.718 1169.42 z" fill="rgb(0,0,0)" transform="translate(0,0)"></path>
<path d="M 878.98 1183.47 C 890.355 1182.49 903.21 1182.02 912.682 1189.36 C 925.727 1199.46 922.096 1213.57 912.355 1224.45 C 902.897 1230.91 892.873 1230.53 881.619 1231.1 C 881.143 1224.35 877.396 1186.93 878.98 1183.47 z" fill="rgb(254,254,254)" transform="translate(0,0)"></path>
<path d="M 1017.64 1166.37 C 1032.29 1164.59 1048.9 1167.42 1062.79 1172.09 C 1061.79 1178.12 1060.83 1181.72 1061.39 1187.86 L 1061.51 1188.99 C 1060.25 1189.35 1042.75 1182.72 1037.71 1181.84 C 1029.38 1180.43 1020.84 1180.7 1012.61 1182.63 C 959.434 1195.43 966.744 1300.99 1048.78 1279.57 L 1048.67 1244.67 C 1039.82 1244.66 1031.29 1247.36 1025.23 1244.16 C 1023.16 1240.4 1023.98 1239.77 1024.04 1234.75 C 1024.04 1232.46 1023.97 1232.6 1025.01 1230.57 C 1032.5 1227.73 1057.53 1228.8 1067.02 1228.89 L 1066.98 1289.74 C 1059.83 1293.07 1052.27 1295.45 1044.51 1296.82 C 1005.29 1303.88 968.098 1287.35 961.583 1244.62 C 958.852 1226.71 961.648 1204.23 973.101 1189.58 C 984.291 1175.27 999.804 1168.47 1017.64 1166.37 z" fill="rgb(0,0,0)" transform="translate(0,0)"></path>
<path d="M 784.282 1164.67 C 786.628 1167.08 794.507 1182.85 796.639 1186.8 C 816.893 1224.37 834.926 1263.79 855.488 1301.15 C 849.207 1301.77 842.767 1301.81 836.445 1301.99 C 832.393 1294.75 822.566 1271.32 818.267 1266.48 L 815.758 1266.5 C 801.308 1267.36 787.799 1268.83 773.2 1269.23 C 770.425 1281.92 767.824 1294.65 765.398 1307.42 C 760.977 1308.01 752.674 1309.74 749.252 1307.31 C 752.418 1284.98 763.28 1249.58 768.309 1226.32 C 771.242 1212.76 779.867 1175.54 784.282 1164.67 z" fill="rgb(0,0,0)" transform="translate(0,0)"></path>
<path d="M 788.404 1203.68 C 792.101 1207.56 809.098 1245.45 812.511 1252.81 L 800.244 1253.78 L 776.157 1255.7 C 779.669 1238.77 784.357 1220.59 788.404 1203.68 z" fill="rgb(254,254,254)" transform="translate(0,0)"></path>
<path d="M 1098.14 1167.94 L 1114.49 1168.06 C 1114.11 1187.35 1113.48 1206.64 1112.6 1225.92 C 1112 1241.64 1109.08 1266.72 1119.7 1278.12 C 1136.35 1296 1167.5 1286.91 1172.56 1262.73 C 1175.49 1248.72 1175.34 1237.08 1175.95 1223.57 L 1178.29 1170.14 C 1183.66 1170.29 1189.43 1170.73 1194.83 1171.05 L 1194.11 1184.69 C 1193.14 1208.47 1192.21 1232.86 1190.27 1256.48 C 1187.68 1288.11 1166.36 1303.35 1135.73 1300.77 C 1087.76 1296.74 1094.56 1255.1 1095.88 1220.14 C 1096.53 1202.74 1096.68 1185.3 1098.14 1167.94 z" fill="rgb(0,0,0)" transform="translate(0,0)"></path>
<path d="M 1248.26 1175.24 C 1256.44 1174.74 1275.14 1176.92 1280.99 1183.49 C 1283.2 1185.96 1281.21 1197.75 1280.79 1201.45 C 1269.45 1193.67 1248.77 1180.05 1236.48 1196.54 C 1223.58 1213.88 1250.1 1229.63 1262.48 1238.54 C 1280.87 1251.77 1289.18 1270.57 1274.81 1291.07 C 1267.42 1301.86 1258.92 1304.03 1246.72 1306.1 C 1232.63 1306.44 1220.91 1303.86 1208.9 1296.49 L 1210.39 1279.56 C 1223.76 1289.84 1247.03 1301.21 1260.24 1283.71 C 1274.03 1265.87 1251.81 1250.62 1238.3 1241.72 C 1207.98 1221.72 1207.63 1182.59 1248.26 1175.24 z" fill="rgb(0,0,0)" transform="translate(0,0)"></path>
<path d="M 983.277 857.449 C 1045.2 856.26 1107.14 858.591 1168.81 864.43 C 1188.16 866.325 1215.7 868.911 1234.43 872.468 C 1237.74 958.882 1237.55 1046.8 1240.41 1133.31 C 1179.85 1127.54 1130.41 1125.07 1069.49 1123.37 C 978.04 1121.64 901.252 1126.29 810.961 1133.29 C 811.091 1107.25 812.972 1077.08 813.696 1050.6 L 818.06 871.294 C 877.512 862.92 923.568 859.303 983.277 857.449 z" fill="rgb(254,254,254)" transform="translate(0,0)"></path>
<path d="M 1021.09 962.169 C 1048.32 960.512 1039.01 989.574 1040.01 1007.04 C 1040.38 1013.71 1040.9 1023.66 1040.09 1029.94 C 1037.72 1031.46 1033.06 1031.04 1029.97 1031.06 L 1010.29 1031.3 C 1010.05 1013.98 1009.29 995.251 1010.26 977.925 C 1010.73 969.486 1013.95 966.048 1021.09 962.169 z" fill="rgb(0,0,0)" transform="translate(0,0)"></path>
<path d="M 1461.67 1210.62 C 1503.88 1216.24 1610.67 1250.64 1649.98 1268.86 C 1654.08 1270.76 1658.88 1273.15 1660.51 1277.53 C 1653.4 1286.52 1544.75 1308.49 1528.52 1321.91 C 1523.35 1326.19 1520.16 1332.41 1519.68 1339.1 C 1519.15 1345.79 1519.95 1349.17 1523.93 1354.61 C 1533.71 1368.01 1547.54 1379.78 1559.11 1391.92 C 1579.16 1412.85 1598.54 1434.41 1617.23 1456.57 C 1622.93 1462.89 1643.25 1484.76 1638.38 1492.57 C 1630.05 1490.64 1618.11 1485.21 1609.77 1482.18 C 1587.6 1475.13 1563.49 1462.81 1541.31 1457.16 C 1490.12 1444.12 1431.63 1439.79 1379.18 1435.45 C 1398.33 1430.17 1456.06 1408.07 1461.01 1383.02 C 1463.23 1371.76 1462.14 1343.84 1462.16 1330.85 L 1461.67 1210.62 z" fill="rgb(254,254,254)" transform="translate(0,0)"></path>
<path d="M 584.586 1214.23 C 586.078 1213.97 586.699 1214.16 588.251 1214.28 C 590.587 1217.86 589.209 1247.22 589.214 1253.87 L 589.547 1335.18 C 589.574 1348.32 587.877 1374.37 592.159 1385.33 C 602.563 1411.96 645.62 1426.86 670.734 1437.54 C 627.429 1441.26 577.999 1444.08 536.128 1453.85 C 521.053 1457.44 506.139 1461.68 491.429 1466.56 C 481.393 1469.88 418.825 1496.91 414.196 1488.07 C 416.061 1478.62 430.272 1463.08 436.921 1455.5 C 450.97 1439.91 465.384 1424.64 480.152 1409.73 C 530.454 1359.11 581.569 1326.43 477.827 1302.5 C 453.809 1296.95 414.256 1285.4 392.079 1276.24 C 419.38 1256.57 546.846 1221.95 584.586 1214.23 z" fill="rgb(254,254,254)" transform="translate(0,0)"></path>
<path d="M 855.975 530.357 C 858.016 530.191 860.446 530.181 862.527 530.114 C 869.488 535.018 860.324 653.184 867.358 669.071 C 871.146 671.605 918.815 666.82 927.02 666.447 C 988.654 663.649 1050.39 663.785 1112.01 666.852 C 1136.58 668.062 1160.83 670.547 1185.34 671.999 C 1186.47 656.473 1185.6 633.527 1185.58 617.459 L 1185.79 530.203 C 1191.94 530.677 1196.74 531.307 1202.84 532.224 L 1202.08 578.5 C 1201.5 622.793 1200.25 667.074 1198.34 711.329 C 1153.46 709.075 1110.15 702.491 1063.53 701.231 C 1024.38 700.161 985.209 700.857 946.127 703.316 C 914.192 705.386 882.102 708.864 850.151 711.264 L 848.6 593.692 C 848.276 574.969 846.721 550.543 847.409 532.452 C 849.724 530.328 852.645 530.623 855.975 530.357 z" fill="rgb(254,254,254)" transform="translate(0,0)"></path>
<path d="M 971.444 793.43 C 1036.37 791.552 1101.35 793.51 1166.05 799.294 C 1201.03 802.273 1244.9 806.77 1279.18 814.646 C 1271.67 825.536 1258.46 836.495 1248.43 845.472 C 1198.96 834.767 1130.32 827.83 1079.19 826.754 C 1047 824.161 1008.14 825.039 975.908 826.445 C 919.688 828.896 857.999 832.659 803.181 845.569 C 793.305 835.826 780.455 823.737 772.558 812.631 C 792.176 807.513 817.103 805.378 837.298 802.952 C 882.087 797.571 926.429 795.483 971.444 793.43 z" fill="rgb(254,254,254)" transform="translate(0,0)"></path>
<path d="M 973.326 522.459 L 977.007 522.578 C 978.723 526.214 979.755 642.174 980.002 654.179 C 960.275 654.293 940.555 654.986 920.868 656.257 C 919.003 656.515 918.741 656.388 916.841 656.272 C 915.444 653.78 915.14 539.343 915.028 525.219 L 973.326 522.459 z" fill="rgb(254,254,254)" transform="translate(0,0)"></path>
<path d="M 1072.69 522.476 C 1095.55 522.999 1114.95 524.326 1137.81 526.317 L 1138.57 570.049 L 1106.77 624.506 L 1089.89 654.869 C 1083.42 655.489 1078.54 655.403 1072.05 655.329 L 1071.96 568.174 C 1071.93 560.001 1071.18 527.837 1072.69 522.476 z" fill="rgb(254,254,254)" transform="translate(0,0)"></path>
<path d="M 1059.4 521.586 C 1059.87 522.226 1060.34 522.866 1060.81 523.506 C 1062.3 562.058 1061.24 618.209 1060.99 654.975 L 1012.94 653.822 C 1024.72 638.468 1040.58 624.372 1050.74 608.132 C 1045.94 611.61 1042.83 614.26 1038.4 618.14 C 1025.19 630.267 1015.4 640.559 1003.48 653.84 L 990.734 653.965 C 990.57 649.948 989.658 636.647 991.389 633.707 C 1013.24 596.591 1036.05 557.638 1059.4 521.586 z" fill="rgb(254,254,254)" transform="translate(0,0)"></path>
<path d="M 1002.82 711.5 C 1022.56 711.21 1042.31 711.266 1062.05 711.667 C 1062.27 735.409 1062.26 759.152 1062.04 782.894 L 1047.25 782.445 C 1028.97 781.733 1009.59 782.333 991.287 782.822 C 990.927 759.108 990.257 735.399 989.276 711.703 L 1002.82 711.5 z" fill="rgb(254,254,254)" transform="translate(0,0)"></path>
<path d="M 973.584 712.449 C 975.332 712.199 976.182 712.338 977.957 712.4 C 979.528 715.259 980.92 775.592 980.97 782.964 C 962.817 783.305 944.673 783.995 926.547 785.036 C 923.237 785.18 922.859 785.399 919.644 784.361 C 918.494 779.297 917.974 724.043 917.886 716.244 C 936.361 715.175 955.026 713.575 973.584 712.449 z" fill="rgb(254,254,254)" transform="translate(0,0)"></path>
<path d="M 1073.24 712.001 C 1093.51 713.108 1113.75 714.527 1133.97 716.258 C 1135.3 737.168 1132.65 763.089 1130.77 783.877 C 1130.74 783.935 1130.72 784.009 1130.66 784.053 C 1126.36 787.487 1080.93 783.371 1072.47 782.925 C 1073.26 759.608 1073.09 735.389 1073.24 712.001 z" fill="rgb(254,254,254)" transform="translate(0,0)"></path>
<path d="M 905.536 717.509 L 906.924 717.525 C 907.798 718.911 908.962 778.183 909.22 785.712 C 891.912 786.642 872.669 788.317 855.42 789.885 C 853.198 774.71 852.147 739.71 850.766 722.528 C 869.005 720.664 887.262 718.991 905.536 717.509 z" fill="rgb(254,254,254)" transform="translate(0,0)"></path>
<path d="M 1144.33 717.032 C 1162.18 719.167 1180.12 720.321 1197.97 723.015 C 1197.89 733.304 1198.09 783.015 1196.8 790.371 L 1195.15 791.278 L 1140.73 786.522 C 1144.27 763.538 1145.47 740.257 1144.33 717.032 z" fill="rgb(254,254,254)" transform="translate(0,0)"></path>
<path d="M 889.537 527.403 C 891.705 527.035 897.505 526.989 899.977 526.901 L 901.268 657.207 L 888.758 658.24 C 884.627 658.697 880.024 658.879 875.838 659.142 C 875.208 615.762 874.828 572.378 874.699 528.993 C 879.445 528.319 884.726 527.896 889.537 527.403 z" fill="rgb(254,254,254)" transform="translate(0,0)"></path>
<path d="M 991.073 521.515 C 1011.25 521.006 1031.43 520.846 1051.61 521.036 C 1037.37 541.792 1024.97 562.768 1012.12 584.364 C 1004.35 597.079 997.114 609.021 989.952 622.074 C 988.847 601.256 989.129 579.565 988.955 558.655 C 988.891 550.86 988.179 529.144 989.24 522.536 L 991.073 521.515 z" fill="rgb(254,254,254)" transform="translate(0,0)"></path>
<path d="M 1156.03 527.465 C 1162.43 527.708 1169.19 528.587 1175.59 529.288 C 1175.47 572.7 1176.38 617.523 1175.43 660.751 C 1170.73 661.625 1161.28 660.41 1156.2 659.921 C 1155.27 617.06 1156.13 570.626 1156.03 527.465 z" fill="rgb(254,254,254)" transform="translate(0,0)"></path>
<path d="M 1268.03 737.498 C 1277.78 739.778 1285.92 741.759 1295.55 744.749 C 1294.72 756.292 1286.51 791.276 1283.38 803.426 C 1274.13 802.657 1264.9 800.669 1255.86 798.715 C 1259.31 778.195 1263.37 757.78 1268.03 737.498 z" fill="rgb(254,254,254)" transform="translate(0,0)"></path>
<path d="M 1233.29 728.656 C 1241.23 730.351 1249.62 732.625 1257.53 734.621 C 1254.21 754.702 1248.7 777.265 1246.55 797.294 C 1238.68 796.45 1230.83 795.54 1222.98 794.564 C 1227.38 773.504 1228.67 749.946 1233.29 728.656 z" fill="rgb(254,254,254)" transform="translate(0,0)"></path>
<path d="M 1136.76 587.824 C 1139.14 591.557 1138.28 649.956 1138.28 658.682 C 1126.45 657.898 1114.63 656.976 1102.82 655.917 L 1099.75 655.477 L 1099.37 653.975 C 1107.58 635.48 1126.09 604.967 1136.76 587.824 z" fill="rgb(254,254,254)" transform="translate(0,0)"></path>
<path d="M 780.015 737.336 L 783.528 737.081 C 786.771 740.973 790.029 790.17 790.675 798.491 C 783.388 799.395 777.447 800.602 770.244 802.089 C 767.561 795.779 760.565 750.077 759.138 741.5 C 765.469 739.7 773.413 738.506 780.015 737.336 z" fill="rgb(254,254,254)" transform="translate(0,0)"></path>
<path d="M 814.619 729.201 L 818.014 728.885 C 819.758 732.296 821.941 785.595 822.297 793.909 L 803.289 796.488 C 801.115 792.436 795.973 742.961 794.645 733.66 L 814.619 729.201 z" fill="rgb(254,254,254)" transform="translate(0,0)"></path>
<path d="M 833.467 724.163 C 837.242 724.166 837.516 723.549 840.324 725.197 C 841.455 732.276 844.936 786.581 843.784 790.559 L 839.981 792.552 C 836.676 792.173 835.052 792.485 833.42 790.444 C 832.298 774.598 829.669 743.424 829.399 726.281 C 829.383 725.296 831.957 724.742 833.467 724.163 z" fill="rgb(254,254,254)" transform="translate(0,0)"></path>
<path d="M 1208.85 723.379 L 1223.17 725.648 C 1219.57 745.049 1216.55 764.556 1214.14 784.142 C 1213.57 788.663 1213.63 789.242 1211.74 793.27 L 1210.21 793.762 C 1206.42 788.699 1208.76 733.577 1208.85 723.379 z" fill="rgb(254,254,254)" transform="translate(0,0)"></path>
<path d="M 1060.01 1707.36 C 1127.38 1705.6 1141.72 1804.83 1072.71 1812.11 C 1056.47 1812.1 1046.2 1811.04 1032.36 1800.61 C 1008.93 1782.96 1005.74 1746.78 1023.85 1724.36 C 1033.48 1712.43 1045.23 1708.91 1060.01 1707.36 z" fill="rgb(0,0,0)" transform="translate(0,0)"></path>
<path d="M 1057.04 1719.15 C 1078.74 1717.72 1096.68 1728.21 1101.26 1749.99 C 1106.44 1774.67 1099.18 1795.69 1072.88 1800.92 C 1035.43 1801.59 1016.69 1769.21 1033.19 1734.89 C 1037.45 1726.02 1047.74 1721.47 1057.04 1719.15 z" fill="rgb(254,254,254)" transform="translate(0,0)"></path>
<path d="M 867.722 1726.4 C 883.984 1724.56 896.784 1730.62 892.303 1749.58 C 889.873 1759.86 884.028 1762.9 875.497 1767.67 C 892.043 1772.15 904.626 1779.58 896.738 1800.28 C 892.545 1811.27 882.592 1816.39 872.051 1820.34 C 858.128 1823.79 844.092 1826.1 829.973 1828.61 C 830.446 1796.36 831.294 1764.11 832.518 1731.87 C 844.221 1729.87 855.926 1727.72 867.722 1726.4 z" fill="rgb(0,0,0)" transform="translate(0,0)"></path>
<path d="M 857.748 1778.4 C 867.304 1777.41 879.71 1775.49 883.993 1786.98 C 885.38 1790.71 885.213 1794.84 883.53 1798.45 C 880.715 1804.42 876.603 1807.34 870.731 1809.67 C 861.709 1812.14 853.849 1813.17 844.646 1814.55 C 844.953 1803.13 844.989 1791.46 845.13 1780.01 C 849.147 1779.33 853.664 1778.89 857.748 1778.4 z" fill="rgb(254,254,254)" transform="translate(0,0)"></path>
<path d="M 863.672 1737.34 C 877.095 1735.83 883.196 1740.97 877.148 1754.63 C 873.717 1762.38 866.951 1764.04 859.42 1766.38 C 855.967 1767.23 849.951 1768.08 846.261 1768.72 C 846.554 1759.06 846.776 1749.4 846.926 1739.73 L 863.672 1737.34 z" fill="rgb(254,254,254)" transform="translate(0,0)"></path>
<path d="M 1169.06 1723.26 C 1186.8 1722.25 1204.22 1728.31 1217.5 1740.11 L 1217.81 1751.46 C 1198.17 1738.24 1161.56 1721.8 1151.76 1753.69 C 1142.86 1782.66 1158.55 1807.55 1186.22 1816.4 C 1199.77 1818.19 1206.81 1816.16 1218.89 1811.02 L 1219.72 1824.2 C 1186.04 1838.05 1144.22 1819.27 1136.97 1782.62 C 1131.41 1754.5 1137.93 1729.81 1169.06 1723.26 z" fill="rgb(0,0,0)" transform="translate(0,0)"></path>
<path d="M 960.604 1710.2 C 975.458 1709.06 982.359 1709.52 996.328 1714.67 C 996.137 1718.83 995.613 1723.01 995.167 1727.15 C 913.902 1690.22 900.872 1825.43 984.247 1796.25 L 995.532 1790.45 C 995.852 1794.5 996.194 1798.55 996.558 1802.6 C 991.129 1805.63 985.369 1808.02 979.392 1809.73 C 926.556 1825.28 898.085 1780.55 921.602 1733.55 C 928.043 1720.68 946.502 1713.02 960.604 1710.2 z" fill="rgb(0,0,0)" transform="translate(0,0)"></path>
<path d="M 1022.19 1427.06 C 1032.89 1426.16 1034.54 1427.86 1040.54 1436.66 C 1041.39 1445.44 1042.03 1485.62 1039.97 1492.89 C 1037 1495.73 1037.26 1494.93 1032.62 1496.07 C 1026.3 1496.17 1020.04 1497.02 1014.84 1493.47 C 1010.02 1486.55 1012.2 1451.96 1013.11 1442.33 C 1013.87 1434.38 1016.08 1431.46 1022.19 1427.06 z" fill="rgb(0,0,0)" transform="translate(0,0)"></path>
<metadata><recraft-signature>{"signed_by": "recraft", "signature_b64": "XTYgFkv8RCMxrEjHjZMBN5Q/R22IumSmfquwjUAiZQPbU55AbFf4yM5zBqWCczqMHWLD3DPsWaclsih1YQF/Ag==", "signing_algo": "Ed25519", "generation_timestamp": 1775982306, "identifier": "8af246d6-6f42-4941-9a88-377b119996ab"}</recraft-signature></metadata></svg>